<svg width="23" height="23" viewBox="0 0 23 23" fill="none" xmlns="http://www.w3.org/2000/svg">
<path d="M12.6188 0.0196056C12.3453 0.0742931 3.50784 3.43757 3.20159 3.60164C2.6055 3.91882 2.04768 4.58601 1.78518 5.30242C1.6594 5.64148 1.65393 5.64695 1.643 9.00476C1.62659 11.6352 1.643 12.3954 1.69222 12.5048C1.7305 12.5813 1.86175 12.6907 1.97659 12.7454C2.16253 12.8384 2.22268 12.8438 2.41409 12.7837C4.16409 12.2751 5.83206 12.4282 7.2594 13.2266C8.39143 13.8665 9.39222 14.9821 9.86253 16.1415C10.1797 16.9126 10.2782 17.3719 10.3055 18.2251C10.3383 19.111 10.2672 19.5704 9.96097 20.4618C9.73128 21.1454 9.72581 21.3094 9.93362 21.5391L10.0922 21.7196H14.4891C18.5742 21.7196 18.9024 21.7141 19.2305 21.6212C20.9039 21.1454 22.0633 19.8438 22.293 18.1649C22.4078 17.3446 22.3477 17.0219 22.0032 16.6829C21.7133 16.3876 21.5 16.3329 20.6578 16.3329C19.6352 16.3329 19.0828 16.1524 18.5797 15.6548C18.0821 15.168 17.9016 14.7087 17.9344 13.9923C17.9563 13.4016 18.1203 13.0188 18.5305 12.5868C19.0664 12.0235 19.6024 11.854 20.8657 11.8485C21.4289 11.8485 21.5711 11.8321 21.7516 11.7391C22.2219 11.4985 22.386 11.061 22.3367 10.186C22.2657 9.03757 21.9047 8.22273 21.1227 7.44617C20.5649 6.88835 20.2094 6.65867 19.5258 6.41257L19.0446 6.24304L17.0649 6.22664L15.0852 6.21023L15.0688 3.87507L15.0524 1.53992L14.8719 1.17351C14.6477 0.714136 14.2157 0.309448 13.7782 0.145386C13.4664 0.0305424 12.8813 -0.0350819 12.6188 0.0196056ZM13.3024 1.75867L13.4391 1.88992V4.05554V6.2157H9.35393C5.01175 6.2157 4.94612 6.22117 4.24612 6.48367C4.08206 6.54929 3.80315 6.68601 3.62815 6.78992C3.45315 6.89382 3.29456 6.98132 3.28362 6.98132C3.26722 6.98132 3.26722 6.72976 3.27815 6.41804C3.3055 5.76179 3.39847 5.52664 3.78128 5.19851C3.98362 5.01804 4.33362 4.87039 6.08909 4.20867C7.23206 3.77664 9.23362 3.02195 10.5407 2.52976C11.8477 2.0321 12.9742 1.62742 13.0453 1.62742C13.1164 1.62195 13.2313 1.6821 13.3024 1.75867ZM14.5766 10.1532C14.675 10.2134 14.8008 10.3391 14.861 10.4376C15.0797 10.7985 14.9485 11.2907 14.5766 11.5204C14.4016 11.6243 14.2922 11.6298 11.3938 11.6298H8.39143L8.15628 11.3891C7.92659 11.1649 7.91565 11.1376 7.91565 10.8368C7.91565 10.536 7.92659 10.5087 8.15628 10.2844L8.39143 10.0438H11.3938C14.2922 10.0438 14.4016 10.0493 14.5766 10.1532Z" fill="#662AB2"/>
<path d="M19.8813 13.0516C19.411 13.1938 19.1157 13.5547 19.0828 14.0251C19.061 14.4243 19.2196 14.7579 19.5532 14.993L19.7938 15.1571L20.8328 15.1735C21.5711 15.1844 21.9266 15.1735 22.0414 15.1243C22.2821 15.0204 22.3532 14.7907 22.3532 14.0907C22.3532 13.0571 22.2711 12.9969 20.9203 13.0024C20.4282 13.0024 19.9633 13.0243 19.8813 13.0516Z" fill="#662AB2"/>
<path d="M3.73206 14.1509C2.46878 14.3477 1.39143 15.0368 0.691434 16.1032C-0.0687218 17.2626 -0.210909 18.7446 0.308622 20.0845C0.778934 21.2985 1.95472 22.3376 3.25081 22.6876C3.8469 22.8462 4.82034 22.8462 5.42737 22.6821C6.98597 22.272 8.20003 21.036 8.5719 19.4938C8.71956 18.8704 8.71956 17.979 8.5719 17.3938C8.17815 15.868 6.95315 14.6376 5.43831 14.2548C4.92425 14.129 4.17503 14.0798 3.73206 14.1509ZM4.74378 16.1251C5.08831 16.3657 5.15393 16.5024 5.17034 17.104L5.19222 17.6454H5.64065C6.3844 17.6454 6.78362 17.9407 6.78362 18.504C6.78362 18.7774 6.66878 18.9688 6.3844 19.1602C6.23128 19.2696 6.13284 19.286 5.69534 19.286H5.18128V19.7345C5.18128 20.2813 5.0555 20.5985 4.78753 20.7626C4.41018 20.9923 3.88518 20.8555 3.65003 20.4782C3.56253 20.3305 3.54065 20.1993 3.54065 19.7891V19.286H2.99925C2.5344 19.286 2.44143 19.2696 2.28284 19.1602C1.79612 18.8321 1.78518 18.1923 2.2555 17.8313C2.44143 17.6891 2.50706 17.6727 2.99925 17.6563L3.54065 17.6345V17.104C3.54065 16.6774 3.56253 16.5462 3.65003 16.3985C3.88518 16.0157 4.39378 15.8899 4.74378 16.1251Z" fill="#662AB2"/>
</svg>
