<svg width="22" height="22" viewBox="0 0 22 22" fill="none" xmlns="http://www.w3.org/2000/svg">
<path d="M10.0285 0.0274162C5.66995 0.40476 1.90745 3.34148 0.551204 7.4321C0.168392 8.58054 0.0426103 9.31335 0.00979783 10.5766C-0.0120772 11.2657 0.00432908 11.8727 0.0426103 12.2173C0.529329 16.3626 3.15433 19.7477 7.02074 21.2352C10.641 22.6243 14.666 21.9954 17.7559 19.5509C21.8301 16.3298 23.077 10.7024 20.7473 6.05945C19.052 2.68523 15.7598 0.426636 11.9754 0.0438232C11.445 -0.00539589 10.5262 -0.0163326 10.0285 0.0274162ZM11.2864 5.56179C11.5379 5.67664 11.7184 5.8571 11.8004 6.07585C11.8442 6.17976 11.8606 7.4321 11.8606 9.89851V13.5735L12.6754 12.7696C13.7035 11.7579 13.9114 11.6594 14.42 11.9657C14.7754 12.1844 14.9231 12.693 14.7371 13.0485C14.6934 13.1305 13.9223 13.9126 13.02 14.793C11.2098 16.5485 11.1551 16.5868 10.7012 16.4555C10.5043 16.3954 10.22 16.1384 8.91292 14.8423C8.0598 14.0001 7.29417 13.2071 7.20667 13.0923C6.75277 12.4798 7.31605 11.6321 8.0762 11.7743C8.2348 11.8016 8.43167 11.9712 9.13714 12.6657L10.0012 13.5188V9.87117C10.0012 7.42663 10.0176 6.17976 10.0614 6.07585C10.1762 5.76414 10.6082 5.45789 10.9309 5.45789C11.0075 5.45789 11.166 5.5071 11.2864 5.56179Z" fill="#662AB2"/>
</svg>
