<svg width="27" height="27" viewBox="0 0 27 27" fill="none" xmlns="http://www.w3.org/2000/svg">
<path opacity="0.989" fill-rule="evenodd" clip-rule="evenodd" d="M12.1875 0C12.9514 0 13.7153 0 14.4792 0C19.7035 0.650219 23.4274 3.35855 25.651 8.125C26.1873 9.43682 26.5259 10.791 26.6667 12.1875C26.6667 12.9514 26.6667 13.7153 26.6667 14.4792C26.0166 19.7034 23.3082 23.4273 18.5417 25.651C17.23 26.1873 15.8758 26.5258 14.4792 26.6667C13.7153 26.6667 12.9514 26.6667 12.1875 26.6667C6.96318 26.0165 3.23922 23.3081 1.01562 18.5417C0.47934 17.2298 0.140798 15.8757 0 14.4792C0 13.7153 0 12.9514 0 12.1875C0.650109 6.96328 3.35844 3.23931 8.125 1.01562C9.43667 0.479371 10.7908 0.14083 12.1875 0ZM12.9167 4.01042C15.1954 3.97342 16.7319 5.01508 17.526 7.13542C18.0412 9.58583 17.1818 11.3654 14.9479 12.474C12.6897 13.1739 10.8928 12.5575 9.55729 10.625C8.52057 8.52047 8.84177 6.65417 10.5208 5.02604C11.2325 4.47023 12.0311 4.13169 12.9167 4.01042ZM10.2083 15C12.2917 14.9913 14.3751 15 16.4583 15.026C18.447 15.3827 19.7057 16.5372 20.2344 18.4896C20.5421 19.6679 20.1862 20.5793 19.1667 21.224C16.297 23.219 13.2067 23.653 9.89583 22.526C8.6462 22.0628 7.56115 21.3596 6.64062 20.4167C6.29719 19.7871 6.22776 19.1273 6.43229 18.4375C6.99292 16.5136 8.25161 15.3678 10.2083 15Z" fill="#999999"/>
</svg>
