<svg width="23" height="23" viewBox="0 0 23 23" fill="none" xmlns="http://www.w3.org/2000/svg">
<path d="M9.86267 0.0811291C6.08923 0.578785 2.85173 2.8866 1.17282 6.27175C0.412667 7.803 0.0626675 9.20847 0.00798002 10.9639C-0.0303012 12.1069 0.0681363 13.0311 0.325168 14.0538C1.79626 19.9053 7.63142 23.5858 13.5377 22.3936C18.208 21.4475 21.7627 17.696 22.4955 12.9327C22.6213 12.1178 22.6267 10.521 22.5009 9.70613C21.8009 5.13425 18.5252 1.47566 14.1283 0.354567C12.7884 0.0100346 11.1752 -0.0884018 9.86267 0.0811291ZM8.86736 4.99753C9.2447 5.15066 9.45251 5.56628 9.37048 5.99832C9.34314 6.16238 9.21735 6.32644 8.75251 6.79128L8.17829 7.38191L12.5041 7.39285C16.7752 7.40925 16.8299 7.40925 16.9775 7.5241C17.2674 7.73738 17.3549 7.91238 17.3549 8.25691C17.3549 8.60144 17.2674 8.77644 16.9775 8.98972C16.8299 9.10457 16.7752 9.10457 12.5041 9.12097L8.17829 9.13191L8.75251 9.72254C9.37595 10.3514 9.45251 10.4991 9.37048 10.9202C9.32126 11.1936 8.99314 11.5163 8.7197 11.5655C8.26579 11.653 8.16735 11.5819 6.67985 10.0999C4.72204 8.14207 4.72751 8.37722 6.62517 6.45769C8.17282 4.8991 8.35876 4.77878 8.86736 4.99753ZM14.5713 11.2046C14.9322 11.4671 17.2619 13.8514 17.322 14.0155C17.4095 14.2507 17.3931 14.5296 17.2783 14.7538C17.1416 15.0108 14.615 17.5264 14.4127 17.603C13.7181 17.8655 13.0345 17.2803 13.2205 16.5858C13.2642 16.4327 13.4228 16.2303 13.8275 15.8311C14.1283 15.5303 14.3744 15.2678 14.3744 15.246C14.3744 15.2186 12.4549 15.2022 10.1088 15.2022C5.37829 15.2022 5.66267 15.2241 5.36735 14.8413C5.24704 14.6827 5.2197 14.5843 5.2197 14.3491C5.2197 14.021 5.32361 13.835 5.62439 13.6272L5.80485 13.5069H10.0869C12.4439 13.5069 14.3744 13.4905 14.3744 13.4632C14.3744 13.4413 14.1502 13.2007 13.8767 12.9327C13.1275 12.1944 13.0072 11.7897 13.4064 11.3358C13.6142 11.1007 13.7236 11.0514 14.0791 11.0514C14.3033 11.046 14.4017 11.0788 14.5713 11.2046Z" fill="#662AB2"/>
</svg>
